<?xml version="1.0" encoding="utf-8"?>
<!-- Uploaded to: SVG Repo, www.svgrepo.com, Generator: SVG Repo Mixer Tools -->
<svg width="800px" height="800px" viewBox="0 0 1024 1024" class="icon"  version="1.1" xmlns="http://www.w3.org/2000/svg"><path d="M106.666667 405.333333h810.666666v405.333334H106.666667z" fill="#CFD8DC" /><path d="M106.666667 810.666667h810.666666v85.333333H106.666667z" fill="#B0BEC5" /><path d="M576 512h256v384H576z" fill="#455A64" /><path d="M192 512h298.666667v234.666667H192z" fill="#E3F2FD" /><path d="M213.333333 533.333333h256v192H213.333333z" fill="#1E88E5" /><path d="M778.666667 714.666667c-6.4 0-10.666667 4.266667-10.666667 10.666666v42.666667c0 6.4 4.266667 10.666667 10.666667 10.666667s10.666667-4.266667 10.666666-10.666667v-42.666667c0-6.4-4.266667-10.666667-10.666666-10.666666z" fill="#90A4AE" /><path d="M512 405.333333m-64 0a64 64 0 1 0 128 0 64 64 0 1 0-128 0Z" fill="#558B2F" /><path d="M768 405.333333m-64 0a64 64 0 1 0 128 0 64 64 0 1 0-128 0Z" fill="#558B2F" /><path d="M256 405.333333m-64 0a64 64 0 1 0 128 0 64 64 0 1 0-128 0Z" fill="#558B2F" /><path d="M853.333333 128H170.666667c-23.466667 0-42.666667 19.2-42.666667 42.666667v64h768V170.666667c0-23.466667-19.2-42.666667-42.666667-42.666667zM448 234.666667h128v170.666666h-128zM789.333333 234.666667h-106.666666l21.333333 170.666666h128zM234.666667 234.666667h106.666666l-21.333333 170.666666H192z" fill="#7CB342" /><path d="M640 405.333333m-64 0a64 64 0 1 0 128 0 64 64 0 1 0-128 0Z" fill="#FFA000" /><path d="M960 405.333333c0 36.266667-27.733333 64-64 64s-64-27.733333-64-64 27.733333-64 64-64l64 64z" fill="#FFA000" /><path d="M384 405.333333m-64 0a64 64 0 1 0 128 0 64 64 0 1 0-128 0Z" fill="#FFA000" /><path d="M64 405.333333c0 36.266667 27.733333 64 64 64s64-27.733333 64-64-27.733333-64-64-64l-64 64z" fill="#FFA000" /><path d="M682.666667 234.666667h-106.666667v170.666666h128zM896 234.666667h-106.666667l42.666667 170.666666h128zM341.333333 234.666667h106.666667v170.666666h-128zM128 234.666667h106.666667l-42.666667 170.666666H64z" fill="#FFC107" /></svg>